<svg width="100" height="100" xmlns="http://www.w3.org/2000/svg">
    <!-- Circle background -->
    <circle cx="50" cy="50" r="45" fill="#4a6fd3" opacity="0.1" />
    
    <!-- Notepad base -->
    <rect x="25" y="20" width="50" height="60" rx="3" fill="white" stroke="#4a6fd3" stroke-width="2" />
    
    <!-- Paper binding -->
    <rect x="25" y="20" width="50" height="7" rx="1" fill="#4a6fd3" opacity="0.5" />
    
    <!-- Task lines -->
    <line x1="32" y1="40" x2="68" y2="40" stroke="#4a6fd3" stroke-width="2" />
    <line x1="32" y1="50" x2="68" y2="50" stroke="#4a6fd3" stroke-width="2" />
    <line x1="32" y1="60" x2="68" y2="60" stroke="#4a6fd3" stroke-width="2" />
    <line x1="32" y1="70" x2="68" y2="70" stroke="#4a6fd3" stroke-width="2" />
    
    <!-- Checkmarks -->
    <circle cx="36" cy="40" r="4" fill="#2ecc71" />
    <polyline points="33,40 35,42 39,38" stroke="white" stroke-width="1.5" fill="none" />
    
    <circle cx="36" cy="50" r="4" fill="#2ecc71" />
    <polyline points="33,50 35,52 39,48" stroke="white" stroke-width="1.5" fill="none" />
    
    <circle cx="36" cy="60" r="4" stroke="#4a6fd3" stroke-width="1.5" fill="none" />
    
    <!-- Pencil -->
    <polygon points="60,70 65,65 70,70 65,75" fill="#f39c12" />
    <line x1="65" y1="65" x2="75" y2="55" stroke="#f39c12" stroke-width="2" />
    <polygon points="75,55 77,53 79,55 77,57" fill="#e74c3c" />
</svg>