<svg width="400" height="300" xmlns="http://www.w3.org/2000/svg">
    <!-- Browser Background -->
    <rect x="0" y="0" width="400" height="300" rx="8" fill="#f5f7fa" />
    
    <!-- Browser Tabs -->
    <rect x="50" y="30" width="300" height="30" rx="5 5 0 0" fill="#e0e0e0" />
    <rect x="60" y="30" width="100" height="30" rx="5 5 0 0" fill="#4a6fd3" />
    <text x="110" y="50" font-family="Arial" font-size="12" fill="white" text-anchor="middle">StudyBuddy</text>
    
    <!-- Extension Popup -->
    <rect x="50" y="60" width="300" height="220" rx="0 0 5 5" fill="white" stroke="#e0e0e0" stroke-width="1" />
    
    <!-- Tabs Navigation -->
    <rect x="60" y="70" width="280" height="30" fill="#f9f9f9" />
    <rect x="60" y="70" width="93" height="30" fill="white" />
    <rect x="60" y="99" width="93" height="1" fill="#4a6fd3" />
    <text x="105" y="90" font-family="Arial" font-size="12" fill="#4a6fd3" text-anchor="middle">Timer</text>
    
    <rect x="153" y="70" width="93" height="30" fill="#f9f9f9" />
    <text x="199" y="90" font-family="Arial" font-size="12" fill="#666" text-anchor="middle">Tasks</text>
    
    <rect x="246" y="70" width="94" height="30" fill="#f9f9f9" />
    <text x="293" y="90" font-family="Arial" font-size="12" fill="#666" text-anchor="middle">Stats</text>
    
    <!-- Timer Content -->
    <text x="200" y="140" font-family="Arial" font-size="35" fill="#4a6fd3" font-weight="bold" text-anchor="middle">18:42</text>
    <text x="200" y="160" font-family="Arial" font-size="12" fill="#999" text-anchor="middle">Study Session</text>
    
    <!-- Control Buttons -->
    <rect x="120" y="180" width="70" height="30" rx="15" fill="white" stroke="#4a6fd3" stroke-width="1" />
    <text x="155" y="200" font-family="Arial" font-size="12" fill="#4a6fd3" text-anchor="middle">Pause</text>
    
    <rect x="210" y="180" width="70" height="30" rx="15" fill="white" stroke="#4a6fd3" stroke-width="1" />
    <text x="245" y="200" font-family="Arial" font-size="12" fill="#4a6fd3" text-anchor="middle">Reset</text>
    
    <!-- Stats Section -->
    <rect x="80" y="230" width="110" height="30" rx="5" fill="#f9f9f9" />
    <text x="135" y="245" font-family="Arial" font-size="10" fill="#666" text-anchor="middle">Today: 45 minutes</text>
    
    <rect x="210" y="230" width="110" height="30" rx="5" fill="#f9f9f9" />
    <text x="265" y="245" font-family="Arial" font-size="10" fill="#666" text-anchor="middle">Streak: 3 days</text>
    
    <!-- Study Progress Indicator -->
    <circle cx="340" cy="140" r="25" stroke="#4a6fd3" stroke-width="5" fill="none" />
    <path d="M 340 115 A 25 25 0 0 1 365 140" stroke="#2ecc71" stroke-width="5" fill="none" />
    <text x="340" y="145" font-family="Arial" font-size="12" fill="#333" text-anchor="middle">75%</text>
</svg>